<?xml version="1.0" standalone="no"?>
<!DOCTYPE svg PUBLIC "-//W3C//DTD SVG 20010904//EN"
 "http://www.w3.org/TR/2001/REC-SVG-20010904/DTD/svg10.dtd">
<svg version="1.0" xmlns="http://www.w3.org/2000/svg"
 width="806.000000pt" height="806.000000pt" viewBox="0 0 806.000000 806.000000"
 preserveAspectRatio="xMidYMid meet">
<metadata>
Created by potrace 1.11, written by Peter Selinger 2001-2013
</metadata>
<g transform="translate(0.000000,806.000000) scale(0.100000,-0.100000)"
fill="#000000" stroke="none">
<path d="M6575 4888 c-102 -10 -136 -14 -155 -21 -8 -4 -39 -15 -67 -26 -200
-74 -308 -225 -315 -441 -3 -81 9 -189 22 -205 5 -5 9 -14 10 -20 5 -25 43
-95 61 -111 10 -9 19 -23 19 -31 0 -7 4 -13 10 -13 5 0 21 -11 35 -25 14 -14
25 -23 25 -20 0 3 9 1 20 -5 11 -6 18 -15 15 -20 -3 -4 7 -7 21 -5 15 1 28 -3
31 -11 3 -8 9 -11 14 -8 5 3 9 0 9 -7 0 -6 8 -9 19 -6 12 3 22 -1 25 -10 3 -7
11 -13 18 -12 28 3 39 -1 32 -13 -5 -9 -2 -9 9 1 14 11 17 11 17 0 0 -12 2
-12 9 0 6 9 10 9 12 2 2 -6 16 -12 32 -13 15 -1 27 -5 27 -9 0 -6 10 -8 65
-10 19 0 35 -6 35 -11 0 -6 8 -4 17 3 9 8 14 9 10 3 -4 -7 0 -14 8 -18 8 -3
15 0 15 6 0 7 7 3 16 -8 8 -10 12 -12 8 -4 -6 12 -4 13 7 3 17 -17 32 -17 24
0 -4 6 -1 5 7 -4 7 -9 19 -14 27 -11 8 3 11 0 7 -6 -3 -6 1 -9 11 -7 10 1 24
-3 32 -9 8 -6 17 -10 20 -10 3 1 17 -3 31 -8 50 -19 87 -80 87 -145 0 -24 -3
-43 -8 -43 -5 0 -6 -6 -3 -13 6 -16 -31 -57 -51 -57 -8 0 -15 -4 -15 -9 0 -14
-80 -50 -125 -56 -69 -9 -178 -6 -240 6 -147 27 -139 25 -192 46 -10 3 -20 7
-23 7 -19 4 -217 88 -242 103 -5 2 -8 -82 -8 -188 0 -106 3 -189 7 -186 3 4
16 0 29 -8 12 -8 32 -12 44 -10 17 3 19 1 11 -9 -9 -11 -5 -13 19 -11 17 1 30
-2 30 -9 0 -7 4 -6 9 2 7 11 9 11 14 -1 3 -7 16 -13 29 -12 12 1 29 -3 37 -8
19 -16 41 -17 41 -4 0 7 5 5 10 -3 5 -8 10 -11 10 -7 0 4 10 2 23 -5 27 -15
50 -16 59 -3 5 6 8 4 8 -5 0 -13 1 -13 10 0 6 10 10 11 10 3 0 -7 6 -13 14
-13 8 0 17 -6 19 -12 3 -8 6 -5 6 6 1 15 4 16 16 6 8 -6 19 -9 25 -5 5 3 10 2
10 -4 0 -7 8 -7 26 -1 14 6 23 6 20 1 -3 -5 5 -11 19 -13 14 -3 25 -1 25 5 0
6 9 2 20 -8 18 -16 20 -16 26 -1 4 11 11 13 21 7 18 -9 51 -4 71 12 10 8 16 7
23 -4 7 -12 9 -12 9 1 0 9 3 11 8 5 8 -12 22 -13 40 -2 7 5 12 4 12 -3 0 -6 5
-8 12 -4 13 8 52 16 81 15 9 0 17 4 17 10 0 5 11 9 25 9 14 0 25 6 25 13 0 8
3 8 9 -2 7 -11 13 -12 24 -3 7 6 24 13 38 16 13 2 23 9 21 16 -1 6 2 9 8 5 6
-4 23 1 38 11 15 10 30 19 35 20 4 1 10 2 15 3 4 1 0 6 -8 11 -11 8 -8 9 13 6
15 -3 27 -1 27 4 0 12 51 65 60 63 4 -1 7 3 7 10 -1 32 4 48 13 42 6 -4 9 -3
8 2 -4 16 14 53 23 48 5 -3 6 2 2 11 -5 13 -3 15 7 9 10 -6 10 -4 2 11 -7 13
-6 24 7 43 9 14 11 22 4 18 -9 -6 -11 -3 -7 7 3 9 10 16 14 16 4 0 6 14 4 30
-2 19 1 30 9 30 8 0 7 4 -3 10 -8 5 -10 10 -5 10 11 0 12 50 1 68 -4 8 0 12
11 13 16 0 16 1 -2 9 -11 5 -14 9 -7 9 10 1 10 6 1 23 -10 18 -9 20 7 14 18
-6 18 -5 1 8 -14 10 -15 15 -5 19 9 4 10 6 1 6 -7 1 -10 8 -7 16 4 9 0 15 -7
15 -11 0 -11 3 1 10 13 9 13 10 0 10 -13 0 -13 1 0 10 13 8 12 10 -3 10 -10 0
-15 5 -12 10 3 6 2 10 -2 10 -5 0 -10 12 -11 27 -1 15 -8 30 -15 35 -6 4 -9 8
-5 8 4 0 -4 12 -17 26 -14 15 -25 33 -25 41 0 8 -4 11 -10 8 -5 -3 -10 -1 -10
5 0 6 -4 8 -10 5 -5 -3 -10 1 -10 10 0 9 -4 13 -10 10 -5 -3 -10 -1 -10 5 0 6
-4 8 -10 5 -5 -3 -10 1 -10 10 0 9 -4 13 -10 10 -5 -3 -10 -3 -10 2 0 9 -48
33 -67 33 -7 0 -13 3 -13 8 0 4 -11 12 -25 19 -19 8 -23 8 -18 0 5 -8 2 -8 -8
0 -9 7 -24 14 -35 16 -10 2 -28 8 -39 14 -11 6 -26 8 -32 6 -7 -3 -13 1 -13 9
0 10 -3 9 -10 -2 -5 -8 -10 -10 -10 -5 0 6 -15 12 -32 13 -18 2 -34 7 -36 12
-2 6 -11 6 -24 -1 -15 -8 -19 -8 -14 0 5 7 -2 11 -16 11 -13 0 -30 6 -37 13
-11 10 -12 9 -6 -3 8 -13 7 -13 -8 -1 -14 11 -17 11 -17 0 0 -12 -2 -12 -9 0
-5 7 -14 10 -20 7 -6 -4 -11 -3 -11 3 0 6 -7 8 -15 5 -9 -4 -15 -1 -15 7 0 10
-3 10 -11 2 -9 -9 -15 -8 -25 2 -8 7 -23 11 -34 8 -12 -3 -20 0 -20 6 0 7 -4
9 -10 6 -5 -3 -10 0 -10 7 0 9 -3 9 -10 -2 -8 -13 -10 -12 -10 3 0 10 -4 15
-10 12 -5 -3 -10 -1 -10 5 0 6 -3 9 -7 7 -8 -4 -54 37 -53 48 1 22 -1 25 -10
20 -6 -3 -7 1 -4 9 3 9 11 13 18 9 6 -3 2 4 -9 17 -11 13 -14 20 -6 15 11 -6
13 -3 9 13 -4 12 -2 20 3 16 5 -3 9 4 9 14 0 23 23 45 36 34 4 -4 2 2 -6 12
-8 11 -10 17 -3 13 6 -4 19 0 27 9 9 8 16 12 16 8 0 -3 7 -1 15 6 8 7 22 10
30 6 11 -4 14 -2 9 6 -5 8 -2 9 9 5 9 -3 19 -2 22 2 2 5 16 11 30 13 13 3 22
2 20 -2 -3 -5 6 -7 20 -6 14 0 25 6 26 11 0 6 4 1 9 -10 6 -14 9 -15 9 -5 1
16 41 23 41 8 0 -5 10 -4 22 3 18 10 20 9 14 -7 -5 -17 -5 -18 7 -2 9 11 18
14 27 8 8 -5 18 -6 22 -4 4 3 8 0 8 -7 0 -8 4 -8 15 1 8 7 15 9 15 4 0 -8 25
-12 83 -15 9 0 15 -4 12 -10 -9 -13 9 -11 24 4 10 10 12 9 9 -2 -2 -10 6 -15
22 -15 14 -1 31 -9 38 -19 11 -14 17 -15 28 -6 11 9 14 9 14 0 0 -7 5 -9 10
-6 6 3 10 2 10 -3 0 -6 9 -8 20 -5 12 3 20 0 20 -7 0 -7 8 -9 21 -5 14 5 19 3
15 -3 -3 -6 -2 -13 3 -16 5 -4 12 -2 16 3 3 6 13 7 22 4 11 -4 14 -3 9 5 -4 7
-4 12 1 12 4 0 9 11 9 25 1 15 -2 22 -9 18 -6 -3 -7 -1 -3 6 14 22 17 63 5 55
-8 -5 -9 -3 -3 7 13 21 14 38 2 45 -6 4 -5 9 3 14 10 7 10 12 1 23 -7 7 -9 16
-7 19 12 12 13 48 2 48 -7 0 -6 4 3 10 8 5 11 10 6 10 -5 0 -3 7 4 16 8 8 9
14 4 12 -5 -2 -10 2 -12 7 -3 12 -58 33 -90 34 -13 1 -20 5 -17 11 3 5 0 7 -9
4 -8 -3 -50 1 -93 10 -173 34 -359 47 -498 34z m535 -378 c0 -5 -2 -10 -4 -10
-3 0 -8 5 -11 10 -3 6 -1 10 4 10 6 0 11 -4 11 -10z"/>
<path d="M1706 4875 c-6 -17 -9 -17 -17 -5 -8 11 -12 12 -16 2 -2 -6 -9 -9
-15 -6 -6 4 -67 7 -135 7 -90 0 -127 -4 -133 -13 -4 -7 -12 -10 -18 -6 -6 3
-9 -2 -7 -11 1 -10 -4 -25 -12 -34 -7 -9 -13 -20 -12 -25 4 -21 -2 -35 -12
-28 -8 4 -8 0 0 -15 10 -18 9 -20 -6 -14 -10 3 -15 3 -11 -2 4 -4 2 -15 -5
-23 -10 -13 -9 -14 2 -8 9 6 12 5 9 -5 -3 -8 -10 -13 -16 -12 -5 1 -8 -7 -5
-17 3 -11 0 -20 -6 -20 -6 0 -8 -7 -4 -17 4 -10 2 -14 -4 -10 -7 4 -10 0 -8
-10 1 -10 -2 -27 -8 -38 -6 -11 -10 -25 -9 -31 1 -6 -5 -17 -13 -24 -8 -7 -15
-23 -15 -37 0 -17 -4 -22 -12 -17 -9 5 -9 2 1 -9 10 -13 10 -17 1 -17 -7 0
-10 -7 -6 -15 3 -8 0 -14 -6 -12 -5 1 -12 -6 -13 -17 -2 -10 -8 -23 -14 -29
-6 -6 -11 -16 -11 -21 0 -6 5 -4 10 4 5 8 10 11 10 5 -1 -5 -7 -19 -15 -29 -8
-10 -12 -23 -9 -27 3 -5 1 -9 -5 -9 -6 0 -8 -7 -5 -15 4 -8 2 -15 -3 -15 -5 0
-10 -7 -11 -15 -1 -8 -3 -22 -4 -30 -1 -10 -7 -14 -16 -10 -12 4 -12 3 -3 -9
9 -10 9 -16 1 -21 -6 -4 -9 -14 -6 -22 4 -9 2 -11 -6 -7 -7 5 -9 0 -6 -14 4
-12 2 -20 -3 -16 -5 3 -10 -2 -10 -10 -1 -9 -3 -20 -4 -26 -1 -5 -3 -15 -4
-21 0 -5 -5 -7 -11 -4 -5 3 -10 1 -10 -4 0 -6 6 -11 13 -11 7 -1 4 -6 -7 -15
-10 -7 -15 -18 -11 -24 3 -6 1 -11 -5 -11 -6 0 -9 -4 -6 -9 8 -13 -4 -42 -15
-36 -4 3 -6 -3 -4 -15 2 -11 -1 -22 -6 -25 -5 -4 -7 -11 -4 -16 4 -5 -1 -9 -9
-9 -9 0 -16 -5 -16 -11 0 -5 6 -7 13 -3 9 6 9 5 0 -8 -7 -8 -10 -18 -6 -21 3
-4 1 -7 -5 -7 -7 0 -11 -3 -10 -7 5 -18 -24 -83 -34 -77 -7 5 -7 1 0 -12 8
-14 6 -21 -5 -29 -9 -7 -16 -20 -17 -31 -3 -31 -18 -78 -29 -91 -5 -7 -6 -13
-1 -13 5 0 1 -5 -9 -11 -9 -6 -15 -14 -12 -19 3 -4 0 -21 -7 -37 -6 -15 -11
-31 -10 -35 1 -5 -3 -8 -9 -8 -6 0 -9 -7 -6 -15 4 -8 2 -17 -4 -20 -5 -4 -7
-11 -4 -16 4 -5 1 -9 -4 -9 -6 0 -11 -5 -11 -11 0 -5 6 -7 13 -3 8 5 8 3 -2
-9 -7 -9 -18 -14 -25 -10 -6 4 -5 -1 3 -10 9 -12 10 -17 2 -17 -7 0 -9 -4 -6
-10 3 -5 2 -10 -4 -10 -6 0 -8 -6 -5 -14 3 -8 0 -17 -7 -22 -8 -5 -10 -3 -4 7
5 8 4 10 0 6 -13 -11 -15 -38 -3 -31 5 3 4 -3 -4 -15 -7 -12 -17 -21 -23 -21
-5 0 -3 -5 5 -10 9 -6 11 -10 3 -10 -7 0 -10 -7 -6 -17 5 -12 3 -14 -8 -9 -8
4 -5 0 6 -9 13 -11 35 -15 66 -14 25 2 50 -1 57 -5 7 -4 12 -3 12 2 0 4 23 6
50 2 27 -4 50 -3 50 2 0 4 11 3 25 -2 18 -7 25 -6 25 2 0 7 7 3 15 -8 14 -18
15 -18 9 0 -6 16 -4 17 14 7 17 -9 22 -9 22 1 0 10 2 10 9 -1 7 -10 10 -10 13
-1 3 9 9 8 21 -4 16 -16 17 -16 17 0 0 13 3 14 14 5 10 -9 17 -7 27 6 12 16
12 17 -1 8 -9 -5 -7 -2 3 8 11 9 16 17 12 17 -4 0 -2 6 4 13 6 8 8 17 4 20 -3
4 2 7 13 7 15 0 16 2 5 9 -12 8 -12 12 -2 25 8 9 10 16 5 16 -5 0 -4 4 3 8 6
4 14 20 17 36 3 15 9 33 14 39 5 7 10 19 10 27 2 34 10 54 23 58 8 3 17 10 21
16 5 7 8 6 8 -3 0 -10 3 -11 14 -2 11 9 15 9 19 -1 4 -9 6 -9 6 2 1 13 2 13
11 0 9 -13 11 -13 20 0 6 10 10 11 10 3 0 -9 7 -10 25 -3 16 6 26 6 31 -1 4
-8 9 -7 15 2 7 11 9 11 9 1 0 -7 4 -11 9 -7 16 9 71 13 65 4 -7 -12 3 -11 28
2 16 8 19 8 13 -1 -6 -9 -2 -9 14 -1 16 9 21 9 21 -1 0 -10 2 -10 9 1 7 11 10
11 15 0 5 -11 7 -12 12 -1 5 10 10 9 21 -5 8 -10 12 -13 9 -6 -4 6 -2 14 4 18
5 3 10 1 10 -6 0 -8 4 -8 15 1 12 10 19 10 27 2 7 -7 17 -8 29 -2 12 7 20 6
24 0 4 -6 12 -7 18 -3 19 11 47 11 47 -1 0 -6 5 -4 10 4 8 13 10 13 10 0 0
-11 3 -11 12 -2 8 8 15 9 25 1 10 -9 13 -8 13 1 0 7 9 3 20 -10 12 -13 18 -30
15 -37 -2 -8 -1 -11 4 -8 5 3 12 1 16 -5 3 -5 1 -10 -5 -10 -6 0 -8 -5 -5 -10
4 -6 11 -7 17 -4 7 4 8 2 4 -5 -4 -6 -1 -25 8 -41 8 -17 10 -27 3 -23 -6 3 -1
-8 12 -25 13 -19 17 -32 10 -32 -9 0 -9 -3 0 -14 6 -8 11 -18 10 -22 -3 -21 2
-35 11 -29 6 3 10 -1 10 -10 0 -9 5 -13 10 -10 6 3 10 -2 10 -12 0 -15 2 -16
10 -3 9 14 14 7 11 -15 -1 -5 5 -2 12 7 8 10 16 16 18 13 10 -9 119 -10 119
-1 0 5 6 1 14 -10 14 -18 15 -18 21 -2 6 14 11 15 26 7 13 -7 19 -6 19 1 0 6
5 8 11 5 16 -11 59 -13 59 -4 0 5 11 5 23 0 13 -5 30 -6 37 -1 7 4 19 6 27 3
7 -3 13 1 13 10 0 8 6 18 13 20 7 3 5 6 -5 6 -11 1 -15 6 -11 16 3 9 -2 24
-12 35 -10 11 -15 26 -12 35 4 8 1 15 -4 15 -7 0 -9 11 -7 25 3 13 2 24 -1 23
-19 -2 -24 4 -11 12 10 6 11 10 3 10 -7 0 -13 7 -13 15 0 8 -5 15 -12 15 -6 0
-8 3 -5 7 4 3 1 13 -6 21 -9 13 -9 14 1 8 17 -10 15 -3 -6 22 -10 12 -18 32
-17 44 1 13 -2 26 -7 29 -5 3 -10 15 -11 27 0 11 -5 18 -9 16 -7 -4 -10 10 -7
32 0 4 -4 10 -9 13 -6 3 -12 17 -13 31 -2 14 -8 28 -12 31 -4 3 -10 21 -12 39
-2 18 -12 39 -22 47 -10 8 -12 12 -5 8 16 -8 15 3 -3 21 -8 8 -12 21 -9 29 4
8 1 15 -6 15 -6 0 -10 9 -8 19 2 10 -6 29 -17 42 -12 13 -14 19 -5 14 9 -5 7
1 -5 15 -11 13 -14 20 -6 15 9 -5 12 -3 9 6 -3 8 -10 13 -16 12 -6 -2 -9 6 -7
17 2 11 0 22 -6 25 -5 4 -9 15 -9 26 0 12 -4 17 -11 13 -8 -4 -9 0 -4 15 4 15
1 23 -10 27 -13 5 -14 9 -4 15 11 6 10 9 -3 14 -10 4 -14 14 -11 26 3 11 0 19
-6 19 -7 0 -10 4 -6 9 3 5 -1 15 -8 23 -7 7 -13 24 -14 37 -1 13 -8 28 -15 32
-10 7 -10 9 1 9 10 0 8 6 -7 18 -16 14 -18 22 -10 36 8 14 7 17 -1 12 -6 -4
-11 -1 -11 8 0 9 -5 16 -11 16 -8 0 -8 5 1 15 10 12 10 15 0 15 -7 0 -10 7 -6
16 3 8 2 12 -3 9 -10 -6 -26 32 -23 53 2 6 -1 12 -7 12 -5 0 -8 8 -7 18 2 9
-4 23 -13 30 -9 8 -11 11 -4 8 8 -5 8 0 0 18 -7 13 -14 23 -17 21 -3 -2 -6 11
-7 27 -1 17 -10 36 -20 44 -13 9 -14 13 -4 14 11 0 11 3 1 15 -6 8 -9 19 -6
24 4 5 -3 16 -15 24 -14 11 -17 16 -7 19 10 4 9 10 -5 25 -9 11 -14 23 -10 26
3 4 1 7 -6 7 -7 0 -9 5 -6 10 3 6 0 10 -7 10 -9 0 -9 3 2 10 11 7 11 10 2 10
-7 0 -10 5 -7 10 6 9 -8 15 -29 11 -5 -1 -5 6 -2 16 6 16 6 16 -11 1 -13 -12
-23 -14 -36 -7 -12 7 -17 6 -17 -3 0 -10 -2 -10 -9 0 -9 15 -20 15 -38 1 -7
-7 -14 -6 -18 1 -3 5 -15 10 -25 10 -10 0 -20 5 -22 12 -3 7 -7 4 -12 -7z
m-52 -427 c-3 -4 0 -8 5 -8 6 0 11 -9 11 -20 0 -11 6 -20 13 -20 8 0 7 -3 -3
-10 -12 -8 -12 -10 2 -15 10 -4 15 -16 13 -31 -1 -13 2 -27 6 -30 5 -3 9 -13
9 -23 0 -10 7 -24 15 -31 17 -14 21 -35 4 -24 -8 4 -7 0 1 -15 6 -13 16 -19
23 -15 7 4 9 4 5 -1 -4 -4 -2 -15 5 -23 10 -13 9 -15 -7 -8 -19 6 -19 6 -3
-12 9 -10 14 -22 10 -25 -3 -4 -1 -7 5 -7 6 0 9 -9 7 -20 -2 -11 4 -25 13 -32
16 -13 24 -30 25 -55 0 -7 3 -13 6 -13 4 0 7 -14 7 -31 1 -17 8 -35 15 -40 12
-7 11 -9 -1 -9 -9 0 -11 -3 -5 -8 21 -15 34 -59 22 -71 -9 -9 -8 -11 5 -6 13
5 15 2 11 -14 -3 -12 -1 -21 6 -21 5 0 8 -7 5 -15 -4 -8 -10 -13 -14 -10 -4 3
-10 -2 -14 -10 -4 -11 -11 -13 -31 -5 -14 5 -25 6 -25 2 0 -8 -124 -6 -146 2
-8 3 -14 1 -14 -4 0 -6 -9 -6 -25 0 -18 7 -25 6 -25 -3 0 -8 -4 -7 -10 3 -7
12 -10 12 -10 1 0 -8 -6 -11 -15 -7 -8 3 -22 9 -32 13 -10 4 -14 2 -10 -4 3
-5 0 -10 -8 -10 -8 0 -11 5 -8 11 4 6 0 5 -9 -2 -13 -10 -17 -10 -22 3 -3 8
-12 15 -20 15 -19 0 -27 47 -9 54 10 4 11 10 3 25 -7 14 -7 22 1 26 6 4 8 14
5 22 -3 8 -2 12 3 9 5 -3 12 1 15 10 3 8 2 12 -4 9 -5 -3 -3 7 5 21 8 15 11
32 8 37 -3 6 -1 7 4 4 6 -4 13 0 17 8 3 8 0 15 -7 16 -9 0 -9 2 1 6 6 2 12 13
12 24 0 10 4 19 9 19 6 0 8 9 6 20 -3 13 0 18 7 14 7 -5 9 -1 5 9 -3 10 -3 17
2 17 8 0 9 5 15 54 1 17 8 32 15 34 11 4 10 6 0 13 -10 6 -11 9 -1 9 6 0 12 9
12 21 0 11 4 18 8 15 4 -2 7 11 7 29 -1 19 1 32 5 30 3 -2 12 5 19 17 7 11 8
17 2 13 -6 -3 -11 -2 -11 4 0 5 8 15 18 20 9 6 12 11 5 11 -16 0 7 47 24 47 6
0 10 -4 7 -9z"/>
<path d="M2767 4853 c-2 -13 0 -23 4 -23 5 0 4 -11 -1 -25 -6 -15 -6 -26 1
-30 5 -4 7 -11 3 -16 -9 -15 -10 -89 -2 -89 4 0 3 -11 -2 -25 -6 -15 -6 -26 1
-30 5 -4 6 -13 0 -22 -4 -9 -6 -25 -3 -36 3 -13 1 -18 -6 -13 -8 5 -10 2 -6
-8 3 -9 11 -13 17 -9 6 3 7 1 3 -6 -4 -6 -7 -36 -7 -66 0 -39 -4 -54 -12 -49
-7 3 -3 -2 7 -10 13 -10 15 -16 7 -16 -11 0 -11 -3 -1 -15 10 -12 10 -15 -1
-15 -11 0 -11 -2 1 -10 11 -7 11 -10 2 -10 -7 0 -10 -5 -7 -10 4 -6 1 -18 -7
-27 -11 -14 -11 -15 0 -9 10 6 13 3 11 -10 -2 -11 0 -25 4 -31 5 -8 3 -13 -4
-13 -8 0 -8 -4 -1 -13 6 -7 7 -18 3 -26 -5 -7 -6 -22 -3 -34 4 -15 2 -18 -9
-12 -8 5 -5 -1 5 -13 14 -17 16 -22 5 -22 -11 0 -11 -2 1 -10 8 -5 11 -10 5
-10 -5 0 -11 -11 -11 -25 -1 -15 2 -22 9 -18 6 3 7 1 3 -6 -4 -6 -7 -36 -7
-66 0 -39 -4 -54 -12 -49 -7 3 -5 -1 5 -8 12 -10 13 -19 7 -31 -7 -11 -6 -17
0 -17 7 0 7 -8 1 -25 -6 -15 -6 -26 1 -30 5 -4 7 -11 3 -16 -9 -15 -10 -89 -2
-89 4 0 3 -11 -2 -25 -6 -15 -6 -26 1 -30 5 -4 6 -13 0 -22 -4 -9 -6 -25 -3
-36 3 -13 1 -18 -6 -13 -8 5 -10 2 -6 -8 3 -9 11 -13 17 -9 6 3 7 1 3 -6 -4
-6 -7 -36 -7 -66 0 -39 -4 -54 -12 -49 -7 3 -3 -2 7 -10 13 -10 15 -16 7 -16
-11 0 -11 -3 -1 -15 10 -12 10 -15 -1 -15 -11 0 -11 -2 1 -10 11 -7 11 -10 2
-10 -7 0 -10 -5 -7 -10 4 -6 1 -18 -7 -27 -11 -14 -11 -15 0 -9 10 6 13 3 11
-10 -2 -11 0 -25 4 -31 5 -8 3 -13 -4 -13 -8 0 -9 -3 0 -13 6 -8 8 -16 5 -20
-3 -3 -7 -21 -8 -41 -1 -19 1 -33 3 -30 2 2 13 -3 23 -13 10 -9 18 -12 18 -6
0 10 59 8 88 -2 6 -2 12 0 12 5 0 6 9 6 25 0 18 -7 25 -6 25 2 0 7 7 3 15 -8
14 -18 15 -18 9 0 -6 16 -4 17 14 7 17 -9 22 -9 22 1 0 9 3 9 10 -2 5 -8 10
-10 10 -4 0 10 56 11 66 1 3 -3 19 -1 35 3 20 6 29 5 29 -3 0 -8 3 -8 8 -2 4
6 13 10 20 10 6 0 12 4 11 10 0 5 8 12 18 16 17 7 17 8 -1 8 -17 1 -17 2 -2
26 14 21 14 24 1 19 -13 -5 -14 -2 -5 22 8 20 8 29 -1 34 -8 6 -8 9 0 14 6 4
11 12 11 17 0 6 -5 7 -11 3 -7 -4 -7 1 1 16 9 18 9 24 0 30 -9 5 -9 9 -1 14 6
4 11 12 11 17 0 6 -5 7 -11 3 -7 -4 -7 1 1 16 9 18 9 24 0 30 -9 5 -9 9 -1 14
6 4 11 12 11 17 0 6 -5 7 -11 3 -7 -4 -7 1 1 16 9 18 9 24 0 30 -9 5 -9 9 -1
14 6 4 11 12 11 17 0 6 -4 8 -8 5 -5 -3 -9 1 -9 9 0 8 3 15 7 15 3 0 6 9 7 20
1 12 -3 18 -9 14 -5 -4 -4 4 3 17 7 13 12 24 12 24 0 0 -5 10 -12 23 -6 12 -8
22 -3 22 4 0 8 14 7 30 0 17 -4 30 -10 30 -5 0 -3 4 5 9 8 6 18 7 22 5 4 -3 8
-2 8 3 0 4 13 8 29 8 16 0 28 -2 26 -5 -2 -3 12 -5 31 -6 19 0 34 3 34 8 0 5
9 4 20 -2 15 -8 20 -8 20 1 0 8 4 9 13 0 8 -6 17 -8 20 -4 4 3 7 1 7 -6 0 -7
4 -10 9 -6 5 3 16 -1 24 -9 8 -8 17 -13 20 -10 3 3 10 -4 17 -15 6 -12 16 -18
22 -15 7 5 9 0 5 -15 -4 -18 -2 -21 10 -17 11 4 13 2 9 -9 -3 -8 0 -14 7 -12
7 1 11 -8 11 -20 -1 -13 3 -20 7 -17 5 3 9 0 9 -6 0 -6 5 -8 12 -4 8 5 9 2 5
-9 -3 -9 -2 -19 4 -22 5 -4 7 -11 4 -16 -4 -5 -1 -9 5 -9 6 0 8 -4 5 -10 -3
-5 1 -10 11 -10 13 0 14 -3 5 -14 -9 -11 -9 -16 0 -22 8 -5 9 -3 4 6 -6 9 -4
11 4 6 7 -5 10 -14 7 -22 -3 -8 -1 -14 5 -14 6 0 8 -7 5 -16 -3 -8 -2 -13 3
-10 8 5 25 -29 22 -46 -1 -5 4 -8 10 -8 5 0 7 -4 4 -10 -3 -5 1 -10 11 -10 13
0 14 -3 5 -14 -9 -11 -9 -16 0 -22 8 -5 9 -3 4 6 -5 9 -4 11 4 6 7 -4 10 -13
8 -19 -2 -7 3 -18 12 -25 13 -11 13 -12 1 -6 -10 5 -9 1 3 -14 11 -12 16 -26
11 -33 -4 -8 -3 -10 4 -5 11 6 16 -6 13 -26 0 -5 3 -8 9 -8 5 0 10 -8 10 -18
0 -18 33 -61 48 -63 42 -5 62 -3 62 6 0 5 5 3 10 -5 7 -11 10 -11 10 -2 0 10
5 10 20 2 15 -8 20 -8 20 2 0 9 3 9 10 -2 8 -12 12 -13 19 -2 6 11 11 10 25
-3 15 -15 16 -15 16 2 0 15 2 16 10 3 5 -8 10 -10 10 -5 0 8 37 10 93 6 5 -1
5 -7 2 -13 -4 -7 1 -4 9 6 9 11 16 16 16 10 0 -5 14 -9 30 -9 17 0 30 5 30 10
0 6 5 3 10 -5 7 -12 10 -12 10 -1 0 7 6 11 15 7 8 -3 22 -3 30 0 13 5 13 8 0
21 -9 8 -13 19 -10 24 4 5 1 9 -5 9 -6 0 -8 5 -5 10 3 6 1 10 -6 10 -7 0 -10
3 -6 6 3 4 -1 13 -9 21 -8 9 -13 20 -11 27 2 6 -5 19 -16 29 -14 12 -16 17 -6
17 10 1 9 4 -4 11 -9 6 -15 14 -12 20 4 5 1 9 -5 9 -6 0 -8 5 -5 10 3 6 1 10
-5 10 -6 0 -8 5 -5 10 3 6 1 10 -4 10 -6 0 -11 12 -11 26 0 14 -4 23 -10 19
-5 -3 -10 3 -10 14 0 12 -4 21 -9 21 -7 0 -19 27 -19 46 -1 3 -9 12 -19 20
-17 13 -17 14 2 8 17 -5 18 -4 4 5 -9 6 -20 22 -23 36 -4 14 -11 23 -16 20 -6
-3 -7 1 -4 9 3 9 1 16 -6 16 -6 0 -9 4 -6 9 3 5 -1 12 -10 15 -14 5 -14 9 -3
24 7 9 10 14 5 10 -11 -9 -36 16 -36 37 0 9 -4 14 -9 11 -5 -3 -11 8 -15 24
-3 17 -11 29 -18 28 -7 -2 -13 6 -13 17 0 14 -6 19 -19 17 -11 -2 -15 1 -11 7
3 6 1 11 -4 11 -6 0 -11 7 -11 16 0 8 -4 13 -9 10 -5 -3 -11 1 -15 9 -3 8 -12
15 -21 15 -8 0 -15 5 -15 11 0 5 -4 7 -10 4 -5 -3 -10 -1 -10 5 0 6 -4 8 -10
5 -5 -3 -10 -1 -10 5 0 6 -5 8 -11 4 -7 -4 -10 -1 -7 7 3 8 12 13 21 13 9 -1
14 2 11 7 -2 5 7 11 21 15 15 4 22 11 18 18 -4 6 2 4 12 -4 10 -8 17 -10 14
-5 -3 6 6 21 19 34 21 19 24 20 18 5 -5 -14 -2 -13 16 6 13 13 22 29 20 34 -2
4 5 6 14 2 12 -4 15 -2 10 9 -3 10 1 15 12 15 13 0 14 2 4 9 -10 6 -8 10 8 14
12 3 19 10 15 16 -3 6 -1 11 5 11 6 0 8 5 5 10 -3 6 -1 10 4 10 6 0 11 11 11
25 0 14 4 25 10 25 5 0 7 7 4 15 -4 8 -1 15 4 15 6 0 9 9 7 20 -2 11 2 20 8
20 7 0 6 4 -3 10 -8 5 -10 10 -3 10 13 0 12 18 -1 39 -6 10 -5 12 2 7 8 -5 11
5 10 28 -1 19 -5 33 -10 30 -10 -6 -10 -1 -2 20 3 9 11 13 18 9 6 -3 2 4 -9
17 -11 13 -14 20 -6 15 11 -6 13 -4 6 11 -5 10 -9 32 -10 48 -1 17 -7 32 -14
34 -9 3 -9 7 0 18 10 12 9 13 -4 8 -12 -4 -15 -1 -12 15 2 12 -1 21 -7 21 -5
0 -8 6 -5 14 5 13 -31 53 -45 48 -4 -1 -4 6 -1 15 4 11 3 14 -5 9 -8 -5 -12 1
-13 16 0 13 -3 17 -6 10 -4 -9 -9 -8 -22 6 -9 11 -25 22 -36 24 -11 2 -19 9
-18 15 1 6 -6 9 -17 6 -11 -3 -20 0 -20 6 0 6 -9 11 -20 11 -11 0 -20 5 -20
11 0 5 -4 7 -10 4 -5 -3 -10 -2 -10 3 0 5 -11 8 -25 7 -14 -2 -25 1 -25 6 0 4
-6 6 -14 3 -8 -3 -17 -1 -20 4 -3 5 -19 8 -36 6 -16 -2 -30 0 -30 5 0 12 -43
8 -52 -4 -5 -6 -8 -6 -8 1 0 6 -7 11 -15 11 -8 0 -15 -5 -15 -11 0 -6 -6 -4
-13 4 -14 18 -80 24 -70 6 3 -7 1 -6 -8 2 -16 14 -33 16 -24 2 3 -6 -1 -7 -10
-4 -9 4 -164 7 -345 8 l-329 1 -4 -22z m489 -305 c-9 15 6 16 22 0 9 -9 12 -9
12 1 0 11 3 11 17 0 11 -10 14 -10 9 -1 -9 15 6 16 22 0 9 -9 12 -9 12 1 0 11
3 11 17 0 11 -10 14 -10 9 -1 -4 6 -3 12 3 12 5 0 13 -5 17 -11 4 -8 9 -7 15
2 8 12 10 12 18 0 6 -9 10 -10 16 -2 5 9 11 9 23 -1 12 -10 14 -10 8 0 -4 6
-2 12 3 12 6 0 11 -8 12 -17 0 -12 2 -13 6 -5 4 10 8 10 21 0 10 -8 13 -8 9
-1 -5 8 -1 8 17 0 13 -7 22 -15 20 -19 -3 -4 2 -5 10 -2 9 3 16 1 16 -6 0 -6
4 -9 8 -6 10 6 32 -30 36 -57 1 -9 6 -20 11 -24 4 -4 5 -2 0 6 -6 10 -4 12 4
7 7 -5 10 -15 6 -24 -3 -8 0 -19 7 -24 10 -6 10 -8 -1 -8 -11 0 -9 -4 5 -15
13 -10 14 -14 5 -15 -10 0 -11 -3 -3 -13 6 -7 7 -18 2 -26 -4 -8 -6 -20 -3
-27 2 -6 0 -15 -6 -18 -6 -4 -8 -13 -4 -21 3 -8 -1 -15 -8 -15 -7 0 -9 -3 -6
-7 4 -3 -1 -12 -11 -20 -9 -8 -11 -12 -4 -8 34 17 0 -24 -52 -62 -22 -17 -32
-20 -38 -10 -6 9 -8 9 -8 0 0 -7 -9 -13 -19 -13 -11 0 -22 -6 -24 -12 -4 -10
-8 -9 -16 2 -9 13 -11 13 -11 1 0 -11 -4 -10 -16 5 -8 10 -13 14 -10 7 4 -6 2
-14 -4 -18 -5 -3 -10 -1 -10 5 0 8 -6 8 -20 0 -15 -8 -20 -8 -21 2 0 11 -2 11
-6 0 -4 -10 -8 -10 -21 0 -13 11 -15 11 -7 -2 6 -12 5 -13 -5 -3 -10 9 -17 10
-27 2 -10 -9 -13 -8 -13 2 0 11 -2 11 -10 -1 -9 -13 -10 -13 -10 0 0 13 -1 13
-10 0 -6 -9 -10 -11 -10 -3 0 7 -7 10 -15 7 -8 -4 -15 -1 -15 6 0 6 -4 9 -9 6
-5 -3 -11 3 -14 14 -3 11 -1 20 4 20 5 0 5 10 -1 24 -5 13 -6 27 -2 30 3 4 7
16 9 27 2 14 -1 18 -9 13 -10 -6 -11 -4 0 7 13 14 17 33 5 26 -5 -3 -8 6 -8
19 0 13 3 24 7 24 4 0 3 14 -2 30 -5 19 -5 30 1 30 6 0 7 5 4 11 -10 15 -11
109 -2 109 4 0 3 9 -3 20 -9 16 -8 20 5 20 8 0 15 5 15 11 0 8 6 7 17 -2 11
-10 14 -10 9 -1z"/>
<path d="M4270 4833 c0 -24 -4 -32 -12 -28 -7 4 -4 -1 6 -9 11 -9 16 -16 10
-16 -11 0 -11 -81 1 -100 6 -10 4 -12 -10 -6 -13 5 -15 3 -8 -6 14 -18 22 -67
12 -73 -10 -7 9 -62 24 -72 6 -4 7 -1 2 8 -8 12 -6 12 8 0 13 -10 17 -11 17
-1 0 9 7 7 20 -5 17 -15 20 -16 15 -3 -6 14 -1 15 27 9 19 -5 44 -4 56 0 12 5
24 4 27 -1 3 -5 18 -5 35 0 21 6 30 5 30 -3 0 -7 4 -6 10 3 6 9 10 10 10 3 0
-8 9 -9 30 -3 17 5 30 5 30 1 0 -5 18 -5 40 -1 22 4 40 5 40 1 0 -3 25 -4 55
-3 85 6 102 -1 101 -40 -1 -18 -5 -36 -11 -40 -6 -5 -5 -8 4 -8 11 0 11 -3 1
-15 -7 -8 -8 -15 -3 -15 10 0 11 -65 2 -75 -4 -3 -3 -22 0 -43 3 -20 6 -286 6
-589 l-1 -553 223 0 223 0 1 28 c0 15 0 74 -1 132 0 58 -2 356 -3 663 l-2 557
286 0 285 0 -1 58 c-1 32 3 60 9 64 7 5 7 8 1 8 -7 0 -10 36 -10 95 1 53 -2
99 -5 103 -3 4 -359 8 -792 8 l-788 2 0 -35z"/>
</g>
</svg>
